# xmcd
#
# Track frame offsets:
#	150
#	19435
#	39750
#	58988
#	78626
#	96167
#	125481
#	149681
#	172367
#	193646
#	214373
#	235519
#	260793
#	282380
#	303338
#	322976
#
# Disc length: 4658 seconds
#
# Revision: 0
# Processed by: cddbd v1.4PL0 Copyright (c) Steve Scherf et al.
# Submitted via: dBpowerAMP V4.0
#
DISCID=f9123010
DTITLE=Santana - Shaman
DYEAR=1900
DGENRE=
TTITLE0=Adouma
TTITLE1=Nothing At All
TTITLE2=The Game Of Love
TTITLE3=You Are My Kind
TTITLE4=Amore (Sexo)
TTITLE5=Foo Foo
TTITLE6=Victory Is Won
TTITLE7=Since Supernatural
TTITLE8=America
TTITLE9=Sideways
TTITLE10=Why Don't You and I
TTITLE11=Feels Like Fire
TTITLE12=Aye Aye Aye
TTITLE13=Hoy Es Adios
TTITLE14=One Of These Days
TTITLE15=Novus
EXTD=
EXTT0=
EXTT1=
EXTT2=
EXTT3=
EXTT4=
EXTT5=
EXTT6=
EXTT7=
EXTT8=
EXTT9=
EXTT10=
EXTT11=
EXTT12=
EXTT13=
EXTT14=
EXTT15=
PLAYORDER=
